<mxfile host="app.diagrams.net" modified="2024-04-26T11:14:11.030Z" agent="Mozilla/5.0 (Windows NT 10.0; Win64; x64) AppleWebKit/537.36 (KHTML, like Gecko) Chrome/124.0.0.0 Safari/537.36" etag="3Gtc5HYrynwwobGEfCbo" version="24.3.0" type="device">
  <diagram id="C5RBs43oDa-KdzZeNtuy" name="Page-1">
    <mxGraphModel dx="1434" dy="784" grid="1" gridSize="10" guides="1" tooltips="1" connect="1" arrows="1" fold="1" page="1" pageScale="1" pageWidth="827" pageHeight="1169" math="0" shadow="0">
      <root>
        <mxCell id="WIyWlLk6GJQsqaUBKTNV-0" />
        <mxCell id="WIyWlLk6GJQsqaUBKTNV-1" parent="WIyWlLk6GJQsqaUBKTNV-0" />
        <mxCell id="d2RgJHA1MF-0FJi521Wp-0" value="" style="rounded=0;html=1;jettySize=auto;orthogonalLoop=1;fontSize=11;endArrow=block;endFill=0;endSize=8;strokeWidth=1;shadow=0;labelBackgroundColor=none;edgeStyle=orthogonalEdgeStyle;entryX=0.5;entryY=0;entryDx=0;entryDy=0;" edge="1" parent="WIyWlLk6GJQsqaUBKTNV-1" target="d2RgJHA1MF-0FJi521Wp-2">
          <mxGeometry relative="1" as="geometry">
            <mxPoint x="110" y="130" as="targetPoint" />
            <mxPoint x="110" y="80" as="sourcePoint" />
          </mxGeometry>
        </mxCell>
        <mxCell id="d2RgJHA1MF-0FJi521Wp-4" value="" style="edgeStyle=orthogonalEdgeStyle;rounded=0;orthogonalLoop=1;jettySize=auto;html=1;endArrow=block;endFill=0;" edge="1" parent="WIyWlLk6GJQsqaUBKTNV-1" source="d2RgJHA1MF-0FJi521Wp-2" target="d2RgJHA1MF-0FJi521Wp-3">
          <mxGeometry relative="1" as="geometry" />
        </mxCell>
        <mxCell id="d2RgJHA1MF-0FJi521Wp-2" value="Prijava/Registracija" style="rounded=0;whiteSpace=wrap;html=1;" vertex="1" parent="WIyWlLk6GJQsqaUBKTNV-1">
          <mxGeometry x="50" y="130" width="120" height="60" as="geometry" />
        </mxCell>
        <mxCell id="d2RgJHA1MF-0FJi521Wp-6" value="" style="edgeStyle=orthogonalEdgeStyle;rounded=0;orthogonalLoop=1;jettySize=auto;html=1;endArrow=block;endFill=0;" edge="1" parent="WIyWlLk6GJQsqaUBKTNV-1" source="d2RgJHA1MF-0FJi521Wp-3" target="d2RgJHA1MF-0FJi521Wp-5">
          <mxGeometry relative="1" as="geometry" />
        </mxCell>
        <mxCell id="d2RgJHA1MF-0FJi521Wp-3" value="Klik na gumb &quot;Išči podatke o tarči&quot;" style="whiteSpace=wrap;html=1;rounded=0;" vertex="1" parent="WIyWlLk6GJQsqaUBKTNV-1">
          <mxGeometry x="230" y="130" width="120" height="60" as="geometry" />
        </mxCell>
        <mxCell id="d2RgJHA1MF-0FJi521Wp-9" value="" style="edgeStyle=orthogonalEdgeStyle;rounded=0;orthogonalLoop=1;jettySize=auto;html=1;endArrow=block;endFill=0;" edge="1" parent="WIyWlLk6GJQsqaUBKTNV-1" source="d2RgJHA1MF-0FJi521Wp-5" target="d2RgJHA1MF-0FJi521Wp-8">
          <mxGeometry relative="1" as="geometry" />
        </mxCell>
        <mxCell id="d2RgJHA1MF-0FJi521Wp-5" value="Izbor orodij" style="whiteSpace=wrap;html=1;rounded=0;" vertex="1" parent="WIyWlLk6GJQsqaUBKTNV-1">
          <mxGeometry x="413.5" y="130" width="120" height="60" as="geometry" />
        </mxCell>
        <mxCell id="d2RgJHA1MF-0FJi521Wp-7" value="Uporabnik odpre spletno aplikacijo" style="ellipse;whiteSpace=wrap;html=1;" vertex="1" parent="WIyWlLk6GJQsqaUBKTNV-1">
          <mxGeometry x="55" width="110" height="80" as="geometry" />
        </mxCell>
        <mxCell id="d2RgJHA1MF-0FJi521Wp-11" value="" style="edgeStyle=orthogonalEdgeStyle;rounded=0;orthogonalLoop=1;jettySize=auto;html=1;endArrow=block;endFill=0;" edge="1" parent="WIyWlLk6GJQsqaUBKTNV-1" source="d2RgJHA1MF-0FJi521Wp-8" target="d2RgJHA1MF-0FJi521Wp-10">
          <mxGeometry relative="1" as="geometry">
            <Array as="points">
              <mxPoint x="660" y="220" />
              <mxPoint x="110" y="220" />
            </Array>
          </mxGeometry>
        </mxCell>
        <mxCell id="d2RgJHA1MF-0FJi521Wp-8" value="Prilagajanje izbranih orodij potrebam&amp;nbsp;&amp;nbsp;" style="whiteSpace=wrap;html=1;rounded=0;" vertex="1" parent="WIyWlLk6GJQsqaUBKTNV-1">
          <mxGeometry x="600" y="130" width="120" height="60" as="geometry" />
        </mxCell>
        <mxCell id="d2RgJHA1MF-0FJi521Wp-13" value="" style="edgeStyle=orthogonalEdgeStyle;rounded=0;orthogonalLoop=1;jettySize=auto;html=1;endArrow=block;endFill=0;" edge="1" parent="WIyWlLk6GJQsqaUBKTNV-1" source="d2RgJHA1MF-0FJi521Wp-10" target="d2RgJHA1MF-0FJi521Wp-12">
          <mxGeometry relative="1" as="geometry" />
        </mxCell>
        <mxCell id="d2RgJHA1MF-0FJi521Wp-10" value="Proženje orodij" style="whiteSpace=wrap;html=1;rounded=0;" vertex="1" parent="WIyWlLk6GJQsqaUBKTNV-1">
          <mxGeometry x="50" y="250" width="120" height="60" as="geometry" />
        </mxCell>
        <mxCell id="d2RgJHA1MF-0FJi521Wp-15" value="" style="edgeStyle=orthogonalEdgeStyle;rounded=0;orthogonalLoop=1;jettySize=auto;html=1;endArrow=block;endFill=0;" edge="1" parent="WIyWlLk6GJQsqaUBKTNV-1" source="d2RgJHA1MF-0FJi521Wp-12" target="d2RgJHA1MF-0FJi521Wp-14">
          <mxGeometry relative="1" as="geometry" />
        </mxCell>
        <mxCell id="d2RgJHA1MF-0FJi521Wp-12" value="Prikaz pridobljenih podatkov od vsakega orodja" style="whiteSpace=wrap;html=1;rounded=0;" vertex="1" parent="WIyWlLk6GJQsqaUBKTNV-1">
          <mxGeometry x="230" y="250" width="120" height="60" as="geometry" />
        </mxCell>
        <mxCell id="d2RgJHA1MF-0FJi521Wp-17" value="" style="edgeStyle=orthogonalEdgeStyle;rounded=0;orthogonalLoop=1;jettySize=auto;html=1;endArrow=block;endFill=0;" edge="1" parent="WIyWlLk6GJQsqaUBKTNV-1" source="d2RgJHA1MF-0FJi521Wp-14" target="d2RgJHA1MF-0FJi521Wp-16">
          <mxGeometry relative="1" as="geometry" />
        </mxCell>
        <mxCell id="d2RgJHA1MF-0FJi521Wp-14" value="Selekcija bistvenih podatkov" style="whiteSpace=wrap;html=1;rounded=0;" vertex="1" parent="WIyWlLk6GJQsqaUBKTNV-1">
          <mxGeometry x="414" y="250" width="120" height="60" as="geometry" />
        </mxCell>
        <mxCell id="d2RgJHA1MF-0FJi521Wp-21" value="" style="edgeStyle=orthogonalEdgeStyle;rounded=0;orthogonalLoop=1;jettySize=auto;html=1;endArrow=block;endFill=0;" edge="1" parent="WIyWlLk6GJQsqaUBKTNV-1" source="d2RgJHA1MF-0FJi521Wp-16" target="d2RgJHA1MF-0FJi521Wp-20">
          <mxGeometry relative="1" as="geometry" />
        </mxCell>
        <mxCell id="d2RgJHA1MF-0FJi521Wp-16" value="Prikaz bistvenih podatkov, kot celotno poročilo o stanju tarče" style="whiteSpace=wrap;html=1;rounded=0;" vertex="1" parent="WIyWlLk6GJQsqaUBKTNV-1">
          <mxGeometry x="600" y="250" width="120" height="60" as="geometry" />
        </mxCell>
        <mxCell id="d2RgJHA1MF-0FJi521Wp-23" value="" style="edgeStyle=orthogonalEdgeStyle;rounded=0;orthogonalLoop=1;jettySize=auto;html=1;endArrow=block;endFill=0;" edge="1" parent="WIyWlLk6GJQsqaUBKTNV-1" source="d2RgJHA1MF-0FJi521Wp-20" target="d2RgJHA1MF-0FJi521Wp-22">
          <mxGeometry relative="1" as="geometry" />
        </mxCell>
        <mxCell id="d2RgJHA1MF-0FJi521Wp-24" value="DA" style="edgeLabel;html=1;align=center;verticalAlign=middle;resizable=0;points=[];" vertex="1" connectable="0" parent="d2RgJHA1MF-0FJi521Wp-23">
          <mxGeometry x="-0.3333" relative="1" as="geometry">
            <mxPoint x="-10" as="offset" />
          </mxGeometry>
        </mxCell>
        <mxCell id="d2RgJHA1MF-0FJi521Wp-26" value="" style="edgeStyle=orthogonalEdgeStyle;rounded=0;orthogonalLoop=1;jettySize=auto;html=1;endArrow=block;endFill=0;" edge="1" parent="WIyWlLk6GJQsqaUBKTNV-1" source="d2RgJHA1MF-0FJi521Wp-20" target="d2RgJHA1MF-0FJi521Wp-25">
          <mxGeometry relative="1" as="geometry" />
        </mxCell>
        <mxCell id="d2RgJHA1MF-0FJi521Wp-27" value="NE" style="edgeLabel;html=1;align=center;verticalAlign=middle;resizable=0;points=[];" vertex="1" connectable="0" parent="d2RgJHA1MF-0FJi521Wp-26">
          <mxGeometry x="-0.6667" y="4" relative="1" as="geometry">
            <mxPoint x="-4" y="20" as="offset" />
          </mxGeometry>
        </mxCell>
        <mxCell id="d2RgJHA1MF-0FJi521Wp-20" value="Shranjevanje podatkov" style="rhombus;whiteSpace=wrap;html=1;rounded=0;" vertex="1" parent="WIyWlLk6GJQsqaUBKTNV-1">
          <mxGeometry x="605" y="350" width="110" height="100" as="geometry" />
        </mxCell>
        <mxCell id="d2RgJHA1MF-0FJi521Wp-30" value="" style="edgeStyle=orthogonalEdgeStyle;rounded=0;orthogonalLoop=1;jettySize=auto;html=1;endArrow=block;endFill=0;entryX=1;entryY=0.5;entryDx=0;entryDy=0;" edge="1" parent="WIyWlLk6GJQsqaUBKTNV-1" source="d2RgJHA1MF-0FJi521Wp-22" target="d2RgJHA1MF-0FJi521Wp-29">
          <mxGeometry relative="1" as="geometry" />
        </mxCell>
        <mxCell id="d2RgJHA1MF-0FJi521Wp-22" value="Shranjevanje pridobljenih podatkov" style="whiteSpace=wrap;html=1;rounded=0;" vertex="1" parent="WIyWlLk6GJQsqaUBKTNV-1">
          <mxGeometry x="414" y="370" width="120" height="60" as="geometry" />
        </mxCell>
        <mxCell id="d2RgJHA1MF-0FJi521Wp-32" value="" style="edgeStyle=orthogonalEdgeStyle;rounded=0;orthogonalLoop=1;jettySize=auto;html=1;endArrow=block;endFill=0;" edge="1" parent="WIyWlLk6GJQsqaUBKTNV-1" source="d2RgJHA1MF-0FJi521Wp-25" target="d2RgJHA1MF-0FJi521Wp-31">
          <mxGeometry relative="1" as="geometry" />
        </mxCell>
        <mxCell id="d2RgJHA1MF-0FJi521Wp-25" value="Brisanje pridobljenih podatkov" style="whiteSpace=wrap;html=1;rounded=0;" vertex="1" parent="WIyWlLk6GJQsqaUBKTNV-1">
          <mxGeometry x="600" y="510" width="120" height="60" as="geometry" />
        </mxCell>
        <mxCell id="d2RgJHA1MF-0FJi521Wp-29" value="Shranjeno iskanje" style="ellipse;whiteSpace=wrap;html=1;" vertex="1" parent="WIyWlLk6GJQsqaUBKTNV-1">
          <mxGeometry x="240" y="360" width="110" height="80" as="geometry" />
        </mxCell>
        <mxCell id="d2RgJHA1MF-0FJi521Wp-31" value="Podatki niso shranjeni za poznejši pregled/spremembo" style="ellipse;whiteSpace=wrap;html=1;" vertex="1" parent="WIyWlLk6GJQsqaUBKTNV-1">
          <mxGeometry x="424" y="497.5" width="116" height="85" as="geometry" />
        </mxCell>
      </root>
    </mxGraphModel>
  </diagram>
</mxfile>
